<?xml version="1.0" encoding="utf-8"?>
<!-- Generator: Adobe Illustrator 15.0.0, SVG Export Plug-In . SVG Version: 6.00 Build 0)  -->
<!DOCTYPE svg PUBLIC "-//W3C//DTD SVG 1.1//EN" "http://www.w3.org/Graphics/SVG/1.1/DTD/svg11.dtd">
<svg version="1.1" id="Ebene_1" xmlns="http://www.w3.org/2000/svg" xmlns:xlink="http://www.w3.org/1999/xlink" x="0px" y="0px"
	 width="100px" height="100px" viewBox="0 0 100 100" enable-background="new 0 0 100 100" xml:space="preserve">
<g id="Captions" display="none">
	<rect x="-127.963" y="-2.593" display="inline" width="137.037" height="73.333"/>
	<rect x="14.259" y="-29.259" display="inline" width="74.075" height="22.222"/>
	<text transform="matrix(1 0 0 1 63.1484 -17.0371)" display="inline" font-family="'Helvetica'" font-size="1.7778">http://thenounproject.com</text>
	<text transform="matrix(1 0 0 1 19.5674 -20.7407)" display="inline" font-family="'Helvetica-Bold'" font-size="4.5613">The Noun Project</text>
	<text transform="matrix(1 0 0 1 20.397 -17.1851)" display="inline" font-family="'Helvetica-Bold'" font-size="2.963">Icon Template</text>
	<text transform="matrix(1 0 0 1 -117.9629 5.1851)" display="inline" font-family="'Helvetica-Bold'" font-size="4.5613">Reminders</text>
	<line display="inline" fill="none" stroke="#FFFFFF" stroke-miterlimit="10" x1="20.185" y1="-13.333" x2="27.593" y2="-13.333"/>
	<line display="inline" fill="none" stroke="#FFFFFF" stroke-miterlimit="10" x1="-118.333" y1="9.63" x2="-105.741" y2="9.63"/>
	<g display="inline">
		<g>
			<g>
				<rect x="-112.261" y="20.606" width="6.46" height="6.401"/>
				<path d="M-107.559,28.75h3.516v-3.483h-3.516V28.75z M-103.715,29.073h-4.17v-4.132h4.17V29.073L-103.715,29.073z
					 M-108.867,30.046h6.132V23.97h-6.132V30.046L-108.867,30.046z M-102.407,30.37h-6.788v-6.725h6.788V30.37L-102.407,30.37z"/>
				<polygon points="-108.814,30.099 -108.92,29.993 -102.788,23.917 -102.682,24.021 				"/>
			</g>
		</g>
	</g>
	<rect x="-118.333" y="40.37" display="inline" fill="none" width="25.926" height="24.074"/>
	<text transform="matrix(1 0 0 1 -118.3335 41.9683)" display="inline" font-family="'Helvetica-Bold'" font-size="2.2222">Strokes</text>
	<text transform="matrix(1 0 0 1 -118.3335 45.6719)" display="inline" font-family="'Helvetica'" font-size="1.7778">Try to keep strokes at 4px</text>
	<text transform="matrix(1 0 0 1 -118.3335 49.376)" display="inline" font-family="'Helvetica'" font-size="1.7778">Minimum stroke weight is 2px</text>
	<text transform="matrix(1 0 0 1 -118.3335 52.709)" display="inline" font-family="'Helvetica'" font-size="1.7778">For thicker strokes use even </text>
	<text transform="matrix(1 0 0 1 -118.3335 54.9316)" display="inline" font-family="'Helvetica'" font-size="1.7778">numbers: 6px, 8px etc.</text>
	<text transform="matrix(1 0 0 1 -118.3335 58.2646)" display="inline" font-family="'Helvetica-Bold'" font-size="1.7778">Remember to expand strokes </text>
	<text transform="matrix(1 0 0 1 -118.3335 60.4863)" display="inline" font-family="'Helvetica-Bold'" font-size="1.7778">before saving as an SVG </text>
	<rect x="-86.852" y="40.37" display="inline" fill="none" width="25.926" height="24.074"/>
	<text transform="matrix(1 0 0 1 -86.8521 41.9683)" display="inline" font-family="'Helvetica-Bold'" font-size="2.2222">Size</text>
	<text transform="matrix(1 0 0 1 -86.8521 45.6719)" display="inline" font-family="'Helvetica'" font-size="1.7778">Cannot be wider or taller than </text>
	<text transform="matrix(1 0 0 1 -86.8521 48.2646)" display="inline" font-family="'Helvetica'" font-size="1.7778">100px (artboard size)</text>
	<text transform="matrix(1 0 0 1 -86.8521 51.9688)" display="inline" font-family="'Helvetica'" font-size="1.7778">Scale your icon to fill as much of </text>
	<text transform="matrix(1 0 0 1 -86.8521 54.1904)" display="inline" font-family="'Helvetica'" font-size="1.7778">the artboard as possible</text>
	<rect x="-55.37" y="40.37" display="inline" fill="none" width="25.926" height="24.074"/>
	<text transform="matrix(1 0 0 1 -55.3701 41.9683)" display="inline" font-family="'Helvetica-Bold'" font-size="2.2222">Ungroup</text>
	<text transform="matrix(1 0 0 1 -55.3701 45.6719)" display="inline" font-family="'Helvetica'" font-size="1.7778">If your design has more than one </text>
	<text transform="matrix(1 0 0 1 -55.3701 47.894)" display="inline" font-family="'Helvetica'" font-size="1.7778">shape, make sure to ungroup</text>
	<rect x="-22.778" y="40.37" display="inline" fill="none" width="25.926" height="24.074"/>
	<text transform="matrix(1 0 0 1 -22.7778 41.9683)" display="inline" font-family="'Helvetica-Bold'" font-size="2.2222">Save as</text>
	<text transform="matrix(1 0 0 1 -22.7778 45.6719)" display="inline" font-family="'Helvetica'" font-size="1.7778">Save as .SVG and make sure </text>
	<text transform="matrix(1 0 0 1 -22.7778 47.894)" display="inline" font-family="'Helvetica'" font-size="1.7778">“Use Artboards” is checked</text>
	<text transform="matrix(1.0074 0 0 1 -78.7354 20.0693)" display="inline" font-family="'Helvetica'" font-size="1.906">100px</text>
	<text transform="matrix(1.0074 0 0 1 -16.1118 26.2964)" display="inline" font-family="'Helvetica-Bold'" font-size="3.812">.SVG</text>
	<rect x="-79.455" y="23.196" display="inline" width="7.601" height="7.544"/>
	<rect x="-79.427" y="20.938" display="inline" width="0.387" height="1.731"/>
	<rect x="-72.268" y="20.938" display="inline" width="0.387" height="1.731"/>
	<rect x="-79.815" y="21.361" display="inline" width="8.321" height="0.423"/>
	<g display="inline">
		<rect x="-47.818" y="22.477" width="7.633" height="7.523"/>
		<rect x="-42.636" y="18.672" width="2.45" height="2.416"/>
	</g>
	<rect x="-117.963" y="14.074" display="inline" stroke="#FFFFFF" stroke-miterlimit="10" width="22.222" height="22.222"/>
	<rect x="-86.852" y="14.074" display="inline" stroke="#FFFFFF" stroke-miterlimit="10" width="22.223" height="22.222"/>
	<rect x="-55" y="14.074" display="inline" stroke="#FFFFFF" stroke-miterlimit="10" width="22.222" height="22.222"/>
	<rect x="-22.407" y="14.074" display="inline" stroke="#FFFFFF" stroke-miterlimit="10" width="22.222" height="22.222"/>
</g>
<g id="Your_Icon">
	<path fill="#FFFFFF" d="M24.375,7.131c-0.784-0.634-1.595-1.28-1.651-1.619c-0.061-0.364-0.252,0.882-0.186,1.812
		C23.011,7.001,23.746,6.997,24.375,7.131z"/>
	<path fill="#FFFFFF" d="M41.805,52.492c0.686,0.226,1.391,0.058,2.1-0.004c0.01-0.244,0.024-0.48,0.046-0.709
		c0.015-0.152,0.029-0.313,0.042-0.477C43.23,51.497,42.232,51.728,41.805,52.492z"/>
	<path fill="#FFFFFF" d="M41.038,49.73c0.06,0.396,0.113,0.771,0.163,1.113c0.906,0.029,1.892-0.217,2.827-0.386
		c0.018-0.27,0.032-0.551,0.045-0.84c-0.747,0.147-1.596,0.34-2.232,0.248c0.461-0.632,1.663-0.893,2.269-1.315
		c0.005-0.197,0.009-0.392,0.012-0.587C43.129,48.72,41.812,48.865,41.038,49.73z"/>
	<path fill="#FFFFFF" d="M41.793,55.067c0.016,0.181,0.029,0.358,0.038,0.533c0.96,0.321,1.759,1.079,2.669,1.493
		c-0.045-0.254-0.095-0.533-0.146-0.831c-0.533-0.178-1.109-0.39-1.423-0.756c0.393-0.095,0.912-0.021,1.324,0.159
		c-0.027-0.17-0.055-0.348-0.081-0.525C43.41,55.018,42.444,55.041,41.793,55.067z"/>
	<path fill="#FFFFFF" d="M41.663,54.626c0.697-0.339,1.582-0.493,2.335-0.378c-0.031-0.464-0.053-0.93-0.063-1.385
		c-0.75,0.143-1.68,0.758-2.347,0.983C41.614,54.105,41.639,54.367,41.663,54.626z"/>
	<path fill="#FFFFFF" d="M40.192,29.742c-0.835,1.134-3.043,2.562-2.751,4.11c1.838-1.747,4.106-3.749,5.039-6.206
		c0.667,0.364,1.041,3.34,1.594,4.253c0.868,1.432,1.863,2.732,2.434,4.262c0.693-1.195-1.529-3.657-1.956-4.892
		c-0.606-1.753-1.408-3.757-1.385-5.619c0.02-1.581,1.417-4.691,0.967-6.362c-0.35-0.032-0.682-0.058-1.004-0.089
		C42.993,22.991,42.51,26.596,40.192,29.742z"/>
	<path fill="#FFFFFF" d="M39.168,35.414c0.733-0.537,1.261-1.416,2.002-1.971c1.952-1.461,1.906,1.28,4.007,0.985
		c-0.262-0.746-0.925-1.051-1.462-1.584c-0.396-0.391-0.712-0.671-0.95-1.186c-0.14-0.302-0.011-1.112-0.258-1.299
		c-0.708-0.536-1.042,0.98-1.423,1.602c-1.024,1.672-2.639,2.181-3.797,3.693c-0.104-0.367-0.16-0.847-0.15-1.275
		c-0.007,0.002-0.219-0.017-0.224-0.02c-0.272,0.476-0.311,1.147-0.421,1.75c0.167,0.245,0.337,0.483,0.504,0.71
		c0.036-0.035,0.072-0.07,0.109-0.104C37.742,36.125,38.484,35.914,39.168,35.414z"/>
	<path fill="#FFFFFF" d="M44.18,37.576c-1.153-1.21-3.425-0.502-4.236-1.509c-0.717,0.493-1.807,0.865-2.321,1.593
		c0.162,0.216,0.307,0.413,0.427,0.584c0.013,0.018,0.026,0.042,0.04,0.061C39.557,37.049,42.762,37.001,44.18,37.576z"/>
	<path fill="#FFFFFF" d="M51.477,21.051c0.1-0.322,0.08-0.641,0.059-0.974c-0.419,0.018-0.836,0.025-1.251,0.02
		C50.523,20.591,50.883,21.012,51.477,21.051z"/>
	<path fill="#FFFFFF" d="M41.038,48.564c0.808-0.59,1.908-0.853,3.058-1.207c0.01-0.353,0.019-0.696,0.027-1.028
		c-0.908,0.168-2.219-0.069-3.233,0.423C40.917,47.037,41.013,48.278,41.038,48.564z"/>
	<path fill="#FFFFFF" d="M43.609,41.093c-0.735,0.227-1.786,0.882-2.55,0.421c0.555-1.022,1.759-0.988,2.681-1.382
		c-1.366-0.629-2.97,0.85-4.374,1.249c0.092,0.287,0.18,0.578,0.264,0.87C41.238,42.062,43.726,42.433,43.609,41.093z"/>
	<path fill="#FFFFFF" d="M73.291,56.433c-0.035,0.136-0.07,0.265-0.106,0.388c0.812,0.032,1.614,1.036,2.463,1.177
		c0.03-0.132,0.061-0.267,0.091-0.403c-0.237-0.025-0.472-0.074-0.687-0.156c0.148-0.324,0.46-0.457,0.825-0.471
		c0.055-0.243,0.108-0.489,0.163-0.736c-0.388,0.059-0.762,0.295-1.22,0.344C74.316,56.629,73.761,56.509,73.291,56.433z"/>
	<path fill="#FFFFFF" d="M73.744,54.396c0.753-0.339,1.836-0.001,2.766-0.346c0.047-0.232,0.092-0.447,0.129-0.63
		c0.006-0.032,0.014-0.065,0.02-0.101c-0.885,0.393-2.033-0.143-2.778,0.342C73.837,53.905,73.791,54.151,73.744,54.396z"/>
	<path fill="#FFFFFF" d="M73.602,55.098c-0.037,0.173-0.073,0.344-0.11,0.509c0.738,0.415,1.778,0.406,2.642,0.204
		c0.045-0.201,0.088-0.402,0.129-0.598C75.427,54.997,74.494,54.973,73.602,55.098z"/>
	<path fill="#FFFFFF" d="M72.636,58.33c-0.442,1.15-0.79,2.088-1.451,2.835c-0.806,0.911-1.272,1.262-0.788,1.886
		c0.486,0.625,2.327,0.773,2.902,0.285c0.576-0.489,1.59-2.162,1.877-3.309c0.068-0.271,0.168-0.693,0.285-1.198
		C74.504,58.689,73.494,58.092,72.636,58.33z"/>
	<path fill="#FFFFFF" d="M41.792,56.818c-0.024,0.175-0.058,0.342-0.101,0.502c1.04,0.281,1.829,1.229,2.885,1.531
		c0.083-0.171,0.13-0.331,0.125-0.473c-0.007-0.152-0.049-0.425-0.11-0.779C43.618,57.553,42.706,56.976,41.792,56.818z"/>
	<path fill="#FFFFFF" d="M39.976,60.725c-0.712,0.967-0.883,1.879-0.069,2.043c0.815,0.164,2.219,0.278,2.449-0.142
		c0.229-0.42-0.543-1.117,0.129-1.598c0.462-0.331,1.35-1.087,1.849-1.782c-1.151,0.058-1.57-1.517-2.644-1.248
		C41.42,58.508,40.328,60.25,39.976,60.725z"/>
	<path fill="#FFFFFF" d="M74.341,50.504c-0.013,0.161-0.036,0.37-0.067,0.616c0.865-0.081,1.869,0.281,2.751,0.579
		c0.016-0.064,0.03-0.129,0.046-0.196c-0.895-0.479-1.689-1.082-2.717-1.242C74.352,50.343,74.348,50.423,74.341,50.504z"/>
	<path fill="#FFFFFF" d="M74.188,51.76c-0.041,0.29-0.088,0.604-0.142,0.936c0.768-0.127,1.961,0.021,2.762-0.053
		c0.034-0.146,0.069-0.303,0.106-0.465C76.068,51.985,74.836,51.573,74.188,51.76z"/>
	<path fill="#FFFFFF" d="M76.239,38.203c0.075-0.491,0.198-1.025,0.384-1.613c-1.057,0.421-1.904,0.878-3.258,0.869
		c-1.281-0.008-2.871,0.022-3.76,1.056c0.088,0.147,0.177,0.301,0.263,0.464c0.019,0.036,0.04,0.075,0.06,0.112
		C71.171,37.933,74.229,38.467,76.239,38.203z"/>
	<path fill="#FFFFFF" d="M76.381,41.052c-0.141-0.497-0.234-1.065-0.232-1.73c-1.049,0.095-2.115,0.398-3.135,0.4
		c-0.941,0.001-1.807-0.106-2.661,0.195c0.106,0.208,0.214,0.423,0.323,0.643C72.492,40.338,74.506,41.07,76.381,41.052z"/>
	<path fill="#FFFFFF" d="M71.868,36.409c1.823,0.123,3.345,0.071,4.933-0.368c0.35-1.064,0.606-1.822,0.83-2.505
		c-0.902,0.285-1.831,0.824-2.67,1.094c-1.227,0.394-2.242,0.138-3.43,0.206c-1.12,0.065-2.613,1.203-2.879,2.424
		c0.15,0.155,0.299,0.326,0.446,0.516C69.519,36.716,70.621,36.325,71.868,36.409z"/>
	<path fill="#FFFFFF" d="M74.266,49.183c0.02,0.115,0.038,0.231,0.051,0.347c0.844,0.229,2.064,0.827,2.906,1.328
		c0.057-0.24,0.113-0.484,0.172-0.731c-0.401-0.268-0.824-0.521-1.262-0.644C75.479,49.299,74.879,49.338,74.266,49.183z"/>
	<path fill="#FFFFFF" d="M77.172,42.935c-0.092-0.189-0.182-0.377-0.27-0.557c-0.07-0.147-0.141-0.301-0.211-0.462
		c-0.668,0.248-1.441,0.476-2.237,0.458c-1.021-0.021-2.104-0.385-3.112-0.454c0.095,0.196,0.188,0.392,0.281,0.587
		c0.586,0.006,1.212,0.102,1.644,0.304c-0.358,0.234-0.867,0.274-1.356,0.3c0.107,0.227,0.211,0.449,0.312,0.669
		C73.738,43.356,75.912,44.003,77.172,42.935z"/>
	<path fill="#FFFFFF" d="M73.891,47.743c0.051,0.153,0.1,0.307,0.145,0.463c0.348,0.06,0.678,0.163,0.957,0.353
		c-0.256,0.103-0.525,0.172-0.805,0.233c0.013,0.053,0.023,0.107,0.035,0.161c1.087-0.243,2.371-0.124,3.342,0.442
		c0.036-0.158,0.072-0.315,0.107-0.47C76.545,48.278,75.146,47.598,73.891,47.743z"/>
	<path fill="#FFFFFF" d="M78.02,44.961c-0.114-0.374-0.271-0.766-0.446-1.159c-0.601,0.172-1.236,0.843-1.854,1.101
		c-0.912,0.381-1.863,0.341-2.834,0.33c0.104,0.233,0.2,0.45,0.285,0.648C74.853,46.04,76.868,46.235,78.02,44.961z"/>
	<path fill="#FFFFFF" d="M77.799,48.361c0.047-0.212,0.091-0.417,0.133-0.615c-0.304-0.082-0.6-0.189-0.859-0.334
		c0.26-0.17,0.674-0.22,0.972-0.219c0.058-0.295,0.103-0.553,0.132-0.759c-0.59,0.072-1.405,0.514-2.041,0.599
		c-0.843,0.111-1.728-0.095-2.579-0.224c0.065,0.169,0.13,0.343,0.193,0.52C75.031,47.153,76.589,47.711,77.799,48.361z"/>
	<path fill="#FFFFFF" d="M47.659,31.727c-0.725-2.219-1.706-4.489-2.106-6.764c-0.319-1.815,0.501-3.711,0.122-5.481
		c-0.33-0.056-0.636-0.098-0.927-0.131c0.468,1.807-0.486,3.594-0.581,5.405c-0.108,2.087,0.984,4.297,1.84,6.153
		c1.266,2.741,1.769,5.056,1.155,7.798c0.211,0.061,0.45,0.125,0.722,0.191C48.619,36.617,48.414,34.039,47.659,31.727z"/>
	<path fill="#FFFFFF" d="M44.815,35.834c-1.017-0.983-2.558-0.558-2.744-2.08c-0.031-0.016-0.064-0.021-0.1-0.019
		c-0.529,0.508-1.615,1.106-1.688,1.758c1.128-0.672,2.242-0.077,3.306,0.536c1.184,0.683,1.459,1.273,1.765,2.288
		c0.117-0.106,0.218-0.118,0.41-0.066C45.637,37.364,45.444,36.441,44.815,35.834z"/>
	<path fill="#FFFFFF" d="M50.842,32.424c-0.522-2.434-1.069-4.812-2.244-7.018c-1.036-1.946-0.992-3.692-1.521-5.638
		c-0.102-0.021-0.204-0.043-0.306-0.067c-0.124-0.029-0.244-0.056-0.362-0.081c0.293,1.369-0.526,3.023-0.175,4.421
		c0.478,1.907,1.479,3.721,2.156,5.574c0.732,2.003,2.919,7.689,1.012,9.641c0.425,0.097,0.876,0.194,1.349,0.289
		C51.813,37.665,51.236,34.259,50.842,32.424z"/>
	<path fill="#FFFFFF" d="M40.093,44.108c0.036,0.171,0.424,1.277,0.462,1.469c1.213,0.018,2.389,0.54,3.583,0.192
		c0-0.381,0-0.732-0.001-1.039C42.811,44.656,41.372,43.887,40.093,44.108z"/>
	<path fill="#FFFFFF" d="M39.075,38.918c-0.131,1.59,3.771-0.115,5.521,0.557c0.064-0.176,0.14-0.337,0.225-0.476
		C43.337,37.334,40.963,39.284,39.075,38.918z"/>
	<path fill="#FFFFFF" d="M39.833,42.997c0.059,0.225,0.114,0.448,0.164,0.665c1.126-0.375,2.842,0.413,4.141,0.386
		c0-0.162,0.001-0.292,0.003-0.384c0.002-0.106,0.004-0.24,0.006-0.398C42.909,43.699,40.983,42.55,39.833,42.997z"/>
	<path fill="#FFFFFF" d="M60.824,34.479c-0.504-4.42,0.984-8.254,4.643-10.919c3.023-2.202,7.928-3.82,11.653-3.065
		c-0.778-0.682-1.729-1.263-2.831-1.695c-3.396-0.781-7.597,1.191-10.078,2.949c-2.04,1.445-3.709,2.487-4.74,4.842
		c-0.902,2.06-0.989,4.049-0.7,6.232c0.228,1.715,0.942,5.011,0.433,7.019c0.123-0.029,0.245-0.06,0.367-0.093
		c0.216-0.059,0.424-0.123,0.629-0.189C61.154,38.142,61.006,36.066,60.824,34.479z"/>
	<path fill="#FFFFFF" d="M57.59,36.374c-0.204-1.636-0.373-3.293-0.51-4.964c-0.334-4.05,1.008-6.642,4.116-9.281
		c1.432-1.215,2.817-2.438,4.548-3.178c1.346-0.576,3.106-0.748,4.48-1.039c-1.422-0.161-2.771-0.21-4.188-0.131
		c-0.601,0.299-1.165,0.645-1.643,0.962c-1.037,0.692-1.967,1.11-3.104,1.659c-1.583,0.767-3.477,1.883-4.229,3.547
		c-0.255,0.567-0.082,2.376-0.705,2.575c-0.932,0.297-0.992-1.409-0.916-1.929c0.517-3.612,5.572-3.507,6.857-6.34
		c-0.467,0.087-0.943,0.185-1.443,0.296c-0.234,0.052-0.472,0.105-0.711,0.158c-0.398,1.514-3.039,1.849-4.135,2.484
		c-1.508,0.873-1.633,2.695-1.395,4.406c0.55,3.937,0.527,7.962,1.375,11.87c0.193,0.884,0.438,1.868,0.307,2.684
		c0.154-0.001,0.307-0.005,0.46-0.01c0.353-0.38,0.864-0.699,1.034-1.233C58,38.246,57.676,37.057,57.59,36.374z"/>
	<path fill="#FFFFFF" d="M54.536,39.295c0.185-4.144-1.487-8.324-0.942-12.409c0.24-1.782-0.961-4.259,0.412-5.612
		c1.127-1.112,3.814-0.995,4.783-2.264c-1.898,0.408-3.916,0.792-5.925,0.976c-0.344,0.954-1.119,1.749-1.001,3.05
		c0.075,0.829,1.26,3.241,0.85,3.921c-0.635,1.053-1.23-1.312-1.356-1.795c-0.276-1.059-0.461-2.201-0.906-3.216
		c-0.295-0.674-0.93-1.261-1.273-1.895c-0.424-0.03-0.843-0.073-1.256-0.135c0.851,3.452,3.56,6.727,4.024,10.342
		c0.239,1.856,0.297,3.516,0.779,5.399c0.316,1.233,0.499,2.899,0.196,4.257c0.5,0.07,1.009,0.126,1.522,0.168
		C54.494,39.827,54.525,39.563,54.536,39.295z"/>
	<path fill="#FFFFFF" d="M18.945,23.23c-0.863-0.178-0.837-0.497-1.625-1.003c-0.788-0.505-0.17-2.107-0.311-2.167
		c-0.142-0.061-0.636,0.631-0.978,1.236c-0.341,0.606,0.281,1.339,0.084,1.961c-0.175,0.553-0.179,0.878-0.803,1.177
		c0.056,0.197,0.129,0.38,0.273,0.531c0.404,0.422,1.578,0.372,2.542,0.499c0.965,0.127,1.258-0.483,2.024-0.908
		c0.045-0.025,0.096-0.05,0.153-0.077C20.116,23.84,19.585,23.361,18.945,23.23z"/>
	<path fill="#FFFFFF" d="M15.731,21.996c-0.183-0.461-0.761,0.032-1.287,0.715c0.096,0.242,0.24,0.465,0.397,0.633
		c0.031,0.034,0.06,0.068,0.087,0.103c0.135-0.092,0.291-0.168,0.458-0.198C15.929,23.154,15.973,22.608,15.731,21.996z"/>
	<path fill="#FFFFFF" d="M22.049,20.332c-1.051-0.543-3.355-0.226-4.407,0.264c0.945,0.772,3.007-0.219,4.153,0.584
		c0.772,0.542,0.77,1.548,0.875,2.457c0.118-0.04,0.234-0.081,0.349-0.122C23.222,22.403,23.35,21.003,22.049,20.332z"/>
	<path fill="#FFFFFF" d="M20.956,21.844c-0.871-0.361-2.297-0.193-3.225-0.35c-0.017,0.015-0.035,0.029-0.052,0.044
		c1.054,1.585,3.76-0.167,3.851,2.481c0.168-0.056,0.342-0.114,0.519-0.173C21.99,23.02,21.867,22.222,20.956,21.844z"/>
	<path fill="#FFFFFF" d="M23.927,16.535c-0.708,0.296-1.446,0-2.116,0.212c-0.492,0.156-1.191,0.911-1.699,1.171
		c1.403,0.139,3.37-0.306,4.182,0.823c0.817,1.136,0.302,2.652,0.481,3.946c0.229-0.154,0.461-0.327,0.693-0.5
		c0.007-0.82-0.098-1.666-0.243-2.432C25.015,18.64,23.872,17.496,23.927,16.535z"/>
	<path fill="#FFFFFF" d="M21.763,18.575c-1.531-0.145-3.22-0.263-4.014,1.492c0.763-0.881,3.704-0.896,4.746-0.341
		c1.264,0.673,0.811,2.335,1.011,3.608c0.283-0.111,0.543-0.224,0.762-0.339c0.012-0.845,0.055-2.27-0.169-3.077
		C23.737,18.609,23.156,18.706,21.763,18.575z"/>
	<path fill="#FFFFFF" d="M24.128,15.187c-0.497,0.914,1.004,2.392,1.52,3.675c0.373,0.928-0.032,2.107,0.185,3.051
		c0.191-0.142,0.377-0.275,0.555-0.39c0.094-2.167,0.097-3.486-1.066-5.716C25.324,15.795,24.625,14.271,24.128,15.187z"/>
	<path fill="#FFFFFF" d="M27.374,17.633c-0.213-0.911-0.353-1.78-0.501-2.739c-0.123-0.791-0.084-1.618-0.573-2.301
		c-0.131,1.867-0.435,2.776,0.291,4.47c0.574,1.34,0.73,2.631,0.564,3.854c0.017,0.007,0.323,0.28,0.339,0.288
		c0.1,0.053,0.21,0.168,0.329,0.329C27.966,20.273,27.596,18.59,27.374,17.633z"/>
	<path fill="#FFFFFF" d="M24.178,12.175c-0.062,0.295-0.703,1.205-0.461,1.51c0.401,0.5,0.739-0.99,0.786-1.219
		c0.154-0.741,0.26-1.756-0.199-2.425c-0.131,0.074-0.259,0.149-0.384,0.226C24.259,10.772,24.306,11.567,24.178,12.175z"/>
	<path fill="#FFFFFF" d="M22.855,13.546c0.004,0.006,0.009,0.012,0.015,0.017c0.543-0.092,0.708-1.069,0.79-1.513
		c0.104-0.563,0.015-1.029-0.204-1.484c-0.093,0.064-0.182,0.13-0.272,0.196C23.565,11.582,22.928,12.779,22.855,13.546z"/>
	<path fill="#FFFFFF" d="M21.06,13.269c-0.055,0.605-0.289,1.346-0.735,2.019c-0.447,0.673-1.673,2.345-1.673,2.345
		s2.31-2.268,2.57-2.929C21.481,14.044,21.104,12.776,21.06,13.269z"/>
	<path fill="#FFFFFF" d="M20.844,15.927c-0.441,0.475-2.088,2.11-2.088,2.11s2.244-1.454,2.339-1.766
		C21.189,15.958,21.129,15.621,20.844,15.927z"/>
	<path fill="#FFFFFF" d="M21.312,15.647c-0.639,0.367,0.673-1.646,1.376-1.599c0.703,0.047,0.744,0.277,1.269,0.411
		c0.525,0.133-0.024,0.186-0.217,0.485c-0.261,0.401-0.144,0.828-0.739,0.949C22.407,16.016,21.536,15.52,21.312,15.647z"/>
	<path fill="#FFFFFF" d="M30.091,5.428C29.4,4.616,28.834,5.65,27.884,6.841c0.542-0.383,1.208-0.687,1.65-0.416
		c0.631,0.386,0.715,1.448,0.566,2.288c0.005-0.005,0.012-0.012,0.017-0.016C30.811,7.973,30.803,6.266,30.091,5.428z"/>
	<path fill="#FFFFFF" d="M86.19,46.594c-1.972-1.716-2.445-5.133-3.202-7.417c-0.758-2.284-0.973-4.424-0.973-4.424
		s0.426-0.016,0.911,1.718c0.447-0.898-0.989-4.137-1.538-6.692s-0.705-5.173-1.896-7.009c0,0-0.58-0.508-0.952-0.62
		c-3.013-1.993-7.015,0.16-9.871,1.583c-3.448,1.718-5.559,5.286-6.189,8.989c-0.394,2.315,0.052,4.138-0.756,6.234
		c0.171-0.08,0.337-0.163,0.497-0.246c0.577-1.131,1.305-2.193,1.66-3.586c0.986-3.849,2.229-5.946,5.742-8
		c1.695-0.99,3.536-1.58,5.262-2.507c0.742-0.398,1.479-1.105,2.338-1.176c0.645-0.053,1.324,0.291,1.975,0.523
		c0.074,0.193,0.121,0.386,0.121,0.569c0,0.138-0.066,0.474-0.109,0.933c-0.975,0.229-1.959,0.637-2.9,0.972
		c-2.079,0.74-4.104,1.245-6.053,2.337c-1.729,0.967-3.495,2.366-4.439,4.123c-0.646,1.2-1.965,3.136-1.674,4.62
		c0.49-0.354,0.895-0.681,1.225-0.929c0.216-1.034,0.839-2.652,1.812-2.301c0.77,0.276,0.937,1.452,0.894,2.444
		c0.061,0.047,0.121,0.1,0.184,0.151c0.031-0.551,0.168-1.131,0.349-1.567c0.639-1.543,2.759-1.49,4.399-1.823
		c1.166-0.237,2.33-0.41,3.445-0.864c0.666-0.272,1.225-0.777,1.799-1.121c0.098-0.354,0.2-0.739,0.315-1.182
		c0.031-0.121,0.062-0.24,0.094-0.358c-1.848,0.414-3.458,1.496-5.267,2.094c-1.084,0.358-2.205,0.506-3.29,0.855
		c-0.571,0.185-1.806,1.167-1.894,0.089c-0.125-1.518,3.601-2.162,4.597-2.463c2.427-0.732,4.509-1.481,6.472-3.001
		c0.008-0.037,0.014-0.075,0.02-0.112c0.086,0.432,0.225,0.884,0.445,1.34c0.823,1.707,0.419,5.147,0.002,7.716
		c-0.416,2.567-0.829,3.803-0.039,5.976c0.215-1.856,0.112-2.401,0.994,0.761c0.883,3.162,1.822,3.438,4.627,4.454
		c2.805,1.016,3.037,2.772,3.037,2.772S88.164,48.31,86.19,46.594z"/>
	<path fill="#FFFFFF" d="M27.745,6.929l-0.237-0.003l-0.562-0.583l-0.055,0.678l-1.126-0.53l0.501,0.724l-1.022-0.765l0.275,1.046
		l-1.013-0.618l0.509,1.65l-1.501-0.123l0.377,0.572l-0.754-0.422c0,0,0.689,0.81,1.402,1.564l0.516,0.29
		c0.078,0.652,0.007,1.338-0.181,1.921c-0.225,0.696-0.586,1.297-0.606,2.048c0.354-0.072,0.733-0.855,0.953-1.154
		c0.301-0.411,0.473-0.728,0.408-1.23c-0.059-0.463-0.126-0.951-0.259-1.408l0.572,0.321C25.99,10.305,27.245,7.788,27.745,6.929z"
		/>
	<path fill="#FFFFFF" d="M42.165,19.071l0.332-0.156l-0.678-0.055c0,0,0.272-0.953,0.535-1.175c0.262-0.223-0.814-0.188-0.814-0.188
		l0.928-1.229l-1.156,0.424c0,0,0.649-0.786,0.806-0.919c0.157-0.132-1.052,0.35-1.052,0.35l0.583-1.175l-0.726-0.06l0.332-0.485
		l-0.85,0.272l0.316-0.888l-1.183,0.763l0.656-0.882l-1.188,0.825l0.885-1.295l-1.579,0.845l1.021-1.77l-1.067,0.546l0.329-1.046
		l-1.443,0.956l0.728-1.159l-0.657,0.288l0.046-0.582l-1.172,0.636l0.785-0.96l-1.209,0.926l0.903-1.292l-1.325,0.818l0.737-1.209
		l-0.98,0.118l0.035-0.436l-0.81,0.373l0.047-0.581c0,0-0.95,0.897-1.108,1.042c-0.158,0.144,0.789-1.604,0.789-1.604L33.41,9.112
		l-0.229-0.556l-0.828,0.713l-0.351-0.37l0.071-0.871l-1,0.894l0.76-1.255l-1.132,1.175l0.25-1.051c0,0-1.882,2.623-2.642,3.935
		c-0.349,0.552-0.616,1.193-0.563,2.167c0.061,1.142-0.027,2.3,0.114,3.431c0.053,0.422,0.565,1.296,0.704,1.688
		c0.469-0.641,0.7-1.969,0.923-2.721c0.26-0.871,0.534-1.656,0.875-2.503c0.196-0.49,0.734-1.082,1.117-1.722
		c0.385-0.573,0.892-0.786,1.312-0.875c-0.431,0.816-1.294,1.82-1.651,2.597c0,0-1.308,5.503-2.818,8.126
		c0.114,0.214,0.364,1.113,0.485,1.346c1.85-2.823,2.052-6.175,3.344-9.178c0.389-0.865,0.93-1.865,1.875-1.991
		c-0.19,0.961-0.879,1.717-1.259,2.647l0.009,0.007c-1.354,2.462-1.848,5.579-2.942,8.115c-0.186,0.429-0.384,0.841-0.6,1.238
		c0.11,0.208,0.938,1.581,1.097,1.775c0.036,0.046,0.075,0.095,0.112,0.142c0.113-0.308,0.229-0.614,0.34-0.917
		c1.121-3.052,3.769-6.41,4.505-9.609c0.398-0.614,0.975-1.157,1.58-1.211c0.015,0.017,0.029,0.036,0.044,0.053
		c-0.139,0.504-1.2,2.658-1.255,2.735c0,0-1.116,2.367-1.555,3.501c-0.517,1.334-2.198,3.24-2.136,4.661
		c0.098,2.244,1.861-1.636,2.33-2.469c0.932-1.656,1.733-3.307,2.264-5.054c0.061-0.201,0.134-0.451,0.215-0.701
		c0.336-0.681,1.067-1.252,1.73-1.282c0.017,0.03,0.032,0.062,0.045,0.093c-0.302,0.422-0.622,0.807-0.897,1.272
		c0,0-0.001-0.001-0.002-0.001c-0.01,0.019-0.021,0.038-0.031,0.058c-0.041,0.071-0.08,0.144-0.119,0.219
		c-0.005,0.01-0.01-0.026-0.016-0.017c-0.002,0.005-0.005-0.031-0.007-0.031l0,0c-1.603,3.142-1.762,6.811-4.266,9.332
		c-0.483,0.487-0.934,0.909-1.254,1.405c0.297,0.417,0.593,0.841,0.871,1.218c0.788-0.938,1.567-1.701,2.358-2.632
		c2.06-2.425,2.425-5.814,3.377-8.714c0.181-0.509,0.516-0.962,0.937-1.245c-0.054,0.569-0.414,0.918-0.587,1.497l0,0.001
		c-0.63,1.695-0.627,3.552-0.926,5.359c-0.341,2.063-1.262,3.636-2.636,5.184c-0.466,0.525-1.128,1.081-1.659,1.651
		c0.038,0.042,0.076,0.086,0.111,0.124c0.261,0.275,0.455,0.597,0.617,0.947c0.567-0.479,1.145-0.99,1.622-1.497
		c1.725-1.832,3.126-4.125,3.89-6.509c0.394-1.233,0.633-2.782,1.335-3.94l0.699-0.33c-0.814,1.996-0.894,4.471-1.686,6.444
		c-0.914,2.277-2.512,4.2-4.028,6.062c-0.367,0.45-0.829,1.056-1.173,1.646c0.062,0.188,0.129,0.379,0.202,0.571
		c0.654-1.126,1.733-2.259,2.55-3.164c1.667-1.845,3.239-3.963,3.739-6.42c0.357-1.758,0.66-3.441,1.063-5.159
		C42.479,19.123,42.323,19.099,42.165,19.071z M31.165,11.001c-0.473,0.8-1.569,1.788-1.821,2.593
		c-0.204,0.652-0.139,1.146-0.341,1.801c-0.141,0.456,0.022,1.343-0.34,1.668c-0.097-0.256-0.176-1.396-0.146-1.668
		c0.117-1.047,0.153-1.093,0.354-2.133c0.178-0.923,0.974-1.957,1.57-2.694c0.355-0.382,0.75-0.722,1.278-1.151
		C31.712,9.871,31.481,10.427,31.165,11.001z M31.602,20.508c0.127-1.219,0.753-2.188,1.25-3.316
		c0.417-0.947,0.55-2.023,0.938-2.963c0.335-0.606,0.767-1.089,1.461-1.049c-0.011,0.522-0.689,1.257-0.898,2.271
		C33.725,17.361,32.911,19.711,31.602,20.508z M38.642,23.83c0.126-1.45,0.509-3.778,1.229-5.216
		c0.243-0.428,0.587-0.735,0.969-1.084c0.016,0.479-0.4,0.915-0.424,1.543l0,0C39.966,20.957,39.805,23.28,38.642,23.83z"/>
</g>
</svg>
